<?xml version="1.0" encoding="UTF-8" standalone="no"?>
<svg xmlns="http://www.w3.org/2000/svg" width="140" height="32" viewBox="0 0 140 32" fill="none">
  <path d="M24.5 16C24.5 20.6944 20.6944 24.5 16 24.5C11.3056 24.5 7.5 20.6944 7.5 16C7.5 11.3056 11.3056 7.5 16 7.5C20.6944 7.5 24.5 11.3056 24.5 16Z" stroke="#00B2E3" stroke-width="3"/>
  <path d="M16 7.5V0M16 32V24.5M24.5 16H32M0 16H7.5" stroke="#00B2E3" stroke-width="3"/>
  <path d="M44.912 24V8H51.568C53.136 8 54.48 8.304 55.6 8.912C56.736 9.504 57.6 10.336 58.192 11.408C58.784 12.48 59.08 13.712 59.08 15.104C59.08 16.496 58.784 17.728 58.192 18.8C57.6 19.872 56.736 20.712 55.6 21.32C54.48 21.912 53.136 22.208 51.568 22.208H46.928V24H44.912ZM46.928 20.288H51.568C52.72 20.288 53.696 20.08 54.496 19.664C55.296 19.232 55.904 18.64 56.32 17.888C56.736 17.12 56.944 16.192 56.944 15.104C56.944 14.016 56.736 13.096 56.32 12.344C55.904 11.576 55.296 10.984 54.496 10.568C53.696 10.136 52.72 9.92 51.568 9.92H46.928V20.288Z" fill="#00B2E3"/>
  <path d="M75.1422 24H72.9822L66.1102 12.224V24H64.0942V8H66.2542L73.1262 19.776V8H75.1422V24Z" fill="#00B2E3"/>
  <path d="M80.7113 19.152C80.7113 17.776 81.0833 16.624 81.8273 15.696C82.5713 14.768 83.6473 14.304 85.0553 14.304C86.4473 14.304 87.5233 14.768 88.2833 15.696C89.0433 16.624 89.4233 17.776 89.4233 19.152V19.824C89.4233 21.184 89.0433 22.336 88.2833 23.28C87.5233 24.208 86.4553 24.672 85.0793 24.672C83.7033 24.672 82.6273 24.208 81.8513 23.28C81.0913 22.336 80.7113 21.184 80.7113 19.824V19.152ZM87.3353 19.152C87.3353 18.352 87.1513 17.696 86.7833 17.184C86.4153 16.672 85.8553 16.416 85.0793 16.416C84.3033 16.416 83.7353 16.672 83.3753 17.184C83.0153 17.696 82.8353 18.352 82.8353 19.152V19.824C82.8353 20.624 83.0153 21.28 83.3753 21.792C83.7513 22.304 84.3193 22.56 85.0793 22.56C85.8393 22.56 86.4073 22.304 86.7833 21.792C87.1513 21.28 87.3353 20.624 87.3353 19.824V19.152Z" fill="#00B2E3"/>
  <path d="M91.6445 22.872C91.6445 22.44 91.7805 22.08 92.0525 21.792C92.3245 21.504 92.6925 21.36 93.1565 21.36C93.6205 21.36 93.9885 21.504 94.2605 21.792C94.5325 22.08 94.6685 22.44 94.6685 22.872C94.6685 23.304 94.5325 23.664 94.2605 23.952C93.9885 24.24 93.6205 24.384 93.1565 24.384C92.6925 24.384 92.3245 24.24 92.0525 23.952C91.7805 23.664 91.6445 23.304 91.6445 22.872Z" fill="#00B2E3"/>
  <path d="M103.65 24.672C102.162 24.672 100.962 24.136 100.05 23.064C99.1381 21.992 98.6821 20.536 98.6821 18.696V18.024C98.6821 16.744 98.9061 15.632 99.3541 14.688C99.8021 13.728 100.45 12.992 101.298 12.48C102.146 11.952 103.122 11.688 104.226 11.688C105.65 11.688 106.778 12.2 107.61 13.224C108.442 14.248 108.858 15.688 108.858 17.544V18.624H100.746C100.778 19.76 101.09 20.664 101.682 21.336C102.29 22.008 103.066 22.344 104.01 22.344C104.682 22.344 105.242 22.224 105.69 21.984C106.138 21.744 106.53 21.424 106.866 21.024L108.642 22.416C107.65 23.92 105.986 24.672 103.65 24.672ZM104.226 14.04C103.458 14.04 102.834 14.328 102.354 14.904C101.874 15.464 101.586 16.264 101.49 17.304H106.794V17.112C106.746 16.104 106.514 15.344 106.098 14.832C105.682 14.304 105.058 14.04 104.226 14.04Z" fill="#00B2E3"/>
  <path d="M119.35 24H117.238V22.344C116.406 23.896 115.046 24.672 113.158 24.672C111.75 24.672 110.598 24.2 109.702 23.256C108.806 22.312 108.358 21.04 108.358 19.44V14.64H110.47V19.344C110.47 20.32 110.718 21.072 111.214 21.6C111.71 22.112 112.398 22.368 113.278 22.368C114.206 22.368 114.942 22.088 115.486 21.528C116.03 20.968 116.302 20.208 116.302 19.248V14.64H118.414V20.448C118.414 21.024 118.422 21.536 118.438 21.984C118.47 22.416 118.502 22.792 118.534 23.112L119.35 24Z" fill="#00B2E3"/>
  <path d="M133.117 14.64L128.141 28.512H125.837L127.733 23.688L123.229 14.64H125.645L128.909 21.768L132.077 14.64H133.117Z" fill="#00B2E3"/>
  <path d="M133.141 14.64H135.253V24H133.141V14.64ZM134.197 12.768C133.733 12.768 133.357 12.64 133.069 12.384C132.781 12.128 132.637 11.808 132.637 11.424C132.637 11.04 132.781 10.72 133.069 10.464C133.357 10.208 133.733 10.08 134.197 10.08C134.661 10.08 135.037 10.2 135.325 10.44C135.613 10.68 135.757 10.992 135.757 11.376C135.757 11.776 135.613 12.112 135.325 12.384C135.053 12.64 134.677 12.768 134.197 12.768Z" fill="#00B2E3"/>
</svg>